<svg xmlns="http://www.w3.org/2000/svg" viewBox="0 0 623.62 77.1"><defs><style>.cls-1{fill:#fff;}</style></defs><g id="Layer_2" data-name="Layer 2"><g id="图层_1" data-name="图层 1"><polygon class="cls-1" points="142.75 11.35 142.75 14.09 121.68 14.09 121.68 75.4 114.3 75.4 114.3 14.09 93.21 14.09 93.21 11.35 142.75 11.35"/><rect class="cls-1" x="152.92" width="37.1" height="2.53"/><polygon class="cls-1" points="190.02 11.35 190.02 14.09 160.4 14.09 160.4 39.36 187.69 39.36 187.69 41.94 160.4 41.94 160.4 72.51 190.46 72.51 190.46 75.4 153.05 75.4 153.05 11.35 190.02 11.35"/><polygon class="cls-1" points="240.97 11.35 240.97 14.09 211.35 14.09 211.35 39.36 238.64 39.36 238.64 41.94 211.35 41.94 211.35 72.51 241.41 72.51 241.41 75.4 204 75.4 204 11.35 240.97 11.35"/><polygon class="cls-1" points="36.98 11.35 36.98 14.09 7.35 14.09 7.35 39.36 34.64 39.36 34.64 41.94 7.35 41.94 7.35 72.51 37.41 72.51 37.41 75.4 0 75.4 0 11.35 36.98 11.35"/><polygon class="cls-1" points="560.51 11.35 560.51 14.05 530.89 14.05 530.89 39.36 558.17 39.36 558.17 41.94 530.89 41.94 530.89 72.51 560.95 72.51 560.95 75.4 523.53 75.4 523.53 11.35 560.51 11.35"/><path class="cls-1" d="M288.56,11.35V72.47l29.77-.08v3H281.27V11.35Z"/><path class="cls-1" d="M84.06,59.62C84.14,51,76,48.32,67.3,45.45c-9.8-3.23-19.92-6.58-19.82-18.66C47.58,15.72,58.62,9.84,69,9.93a39.26,39.26,0,0,1,17.32,4.28c0,.52,0,2.77,0,4.24a27.37,27.37,0,0,0-16.93-6.13c-8.84-.08-15.56,5.2-15.62,12.28C53.63,33.12,62,35.91,70.8,38.86c9.77,3.27,19.87,6.65,19.77,18.06C90.46,70.31,77.74,77.21,65.25,77.1A39.35,39.35,0,0,1,47,72.59c0-.55,0-3,0-4.34,3.57,2.32,10,6.09,18.14,6.16,12.18.11,18.83-7.54,18.89-14.79"/><path class="cls-1" d="M356.09,10.79l10.64,25S381.17,69.71,383.6,75.4h-8.37c-.31-.77-10.13-24.83-10.13-24.83H337.75S328,74.62,327.7,75.4h-4.53l27-64.61ZM350.8,18c-4.47,11.62-10.4,26-11.62,29l-.37.88H364l-3.58-8.81-9.06-22.56Z"/><path class="cls-1" d="M440.76,11.35V54.89c0,13.72-9.5,21.91-25.41,21.91-16.72,0-25.55-7.74-25.55-22.38V11.35h7.26V56.13c0,11.5,7.19,18.36,19.23,18.36C429.05,74.49,437,67,437,54.88V11.35Z"/><path class="cls-1" d="M597.57,11.35c7.74-.14,14.07,1.81,17.84,5.49a14.29,14.29,0,0,1,4.16,10.61v0c0,12.48-15.52,15.61-16.18,15.73l-.94.19s19.94,30.12,21.17,32h-8.08l-20-31.17H581.93V75.4h-7.39V11.35Zm-.73,2.46H581.93V41.88h10.8c7.17.06,12.73-1.66,16.07-5a12.74,12.74,0,0,0,3.64-9.43c0-4.17-1.22-7.47-3.59-9.81-2.68-2.63-6.72-3.93-12-3.86"/><path class="cls-1" d="M479.48,11.35c10.06-.16,18.28,2.62,23.8,8s8.33,13.37,8.33,23.18c0,10.09-2.89,18.06-8.6,23.7-6.18,6.11-15.48,9.26-26.9,9.12H455V11.35Zm-1.18,2.5H462.42v59h12.13c10,.11,17.22-2.22,22.16-7.1s7.35-12.27,7.35-22.11c0-10.46-2.6-18.35-7.74-23.43-4.36-4.31-10.43-6.46-18-6.38"/></g></g></svg>